<svg id="visual" viewBox="0 0 900 600" width="900" height="600" xmlns="http://www.w3.org/2000/svg" xmlns:xlink="http://www.w3.org/1999/xlink" version="1.1"><g><g transform="translate(564 24)"><path d="M0 -135.3L117.2 -67.7L117.2 67.7L0 135.3L-117.2 67.7L-117.2 -67.7Z" fill="none" stroke="#D6A96E" stroke-width="2"></path></g><g transform="translate(537 531)"><path d="M0 -71L61.5 -35.5L61.5 35.5L0 71L-61.5 35.5L-61.5 -35.5Z" fill="none" stroke="#D6A96E" stroke-width="2"></path></g><g transform="translate(174 142)"><path d="M0 -58L50.2 -29L50.2 29L0 58L-50.2 29L-50.2 -29Z" stroke="#D6A96E" fill="none" stroke-width="2"></path></g><g transform="translate(784 194)"><path d="M0 -77L66.7 -38.5L66.7 38.5L0 77L-66.7 38.5L-66.7 -38.5Z" stroke="#D6A96E" fill="none" stroke-width="2"></path></g><g transform="translate(32 564)"><path d="M0 -57L49.4 -28.5L49.4 28.5L0 57L-49.4 28.5L-49.4 -28.5Z" stroke="#D6A96E" fill="none" stroke-width="2"></path></g><g transform="translate(871 462)"><path d="M0 -30L26 -15L26 15L0 30L-26 15L-26 -15Z" stroke="#D6A96E" fill="none" stroke-width="2"></path></g><g transform="translate(279 430)"><path d="M0 -27L23.4 -13.5L23.4 13.5L0 27L-23.4 13.5L-23.4 -13.5Z" stroke="#D6A96E" fill="none" stroke-width="2"></path></g></g></svg>