<?xml version="1.0" encoding="UTF-8"?>
<svg id="Calque_2" data-name="Calque 2" xmlns="http://www.w3.org/2000/svg" viewBox="0 0 12 15.96">
  <defs>
    <style>
      .cls-1 {
        fill: #d6a96e;
      }

      .cls-2 {
        fill: #f1f1f1;
      }
    </style>
  </defs>
  <g id="Calque_1-2" data-name="Calque 1">
    <path class="cls-1" d="m12,6c0,2.73-3.66,7.59-5.26,9.6-.38.48-1.1.48-1.48,0C3.66,13.59,0,8.73,0,6,0,2.69,2.69,0,6,0s6,2.69,6,6Z"/>
    <path class="cls-2" d="m4.91,2.99c0-.18-.15-.32-.33-.32s-.33.14-.33.32v.53c-.48,0-.87.38-.87.85h-.54c-.18,0-.33.14-.33.32s.15.32.33.32h.54v.74h-.54c-.18,0-.33.14-.33.32s.15.32.33.32h.54v.74h-.54c-.18,0-.33.14-.33.32s.15.32.33.32h.54c0,.47.39.85.87.85v.53c0,.18.15.32.33.32s.33-.14.33-.32v-.53h.76v.53c0,.18.15.32.33.32s.33-.14.33-.32v-.53h.76v.53c0,.18.15.32.33.32s.33-.14.33-.32v-.53c.48,0,.87-.38.87-.85h.54c.18,0,.33-.14.33-.32s-.15-.32-.33-.32h-.54v-.74h.54c.18,0,.33-.14.33-.32s-.15-.32-.33-.32h-.54v-.74h.54c.18,0,.33-.14.33-.32s-.15-.32-.33-.32h-.54c0-.47-.39-.85-.87-.85v-.53c0-.18-.15-.32-.33-.32s-.33.14-.33.32v.53h-.76v-.53c0-.18-.15-.32-.33-.32s-.33.14-.33.32v.53h-.76v-.53Zm-.22,1.37h2.61c.24,0,.43.19.43.42v2.54c0,.23-.19.42-.43.42h-2.61c-.24,0-.43-.19-.43-.42v-2.54c0-.23.19-.42.43-.42Zm2.61.42h-2.61v2.54h2.61v-2.54Z"/>
  </g>
</svg>