<?xml version="1.0" encoding="UTF-8"?>
<svg id="Calque_2" data-name="Calque 2" xmlns="http://www.w3.org/2000/svg" viewBox="0 0 243.2 72.42">
  <g id="Calque_1-2" data-name="Calque 1">
    <g>
      <rect y="57.95" width="99" height="9" rx="1.92" ry="1.92"/>
      <rect width="41" height="9.95" rx="1.87" ry="1.87"/>
      <g>
        <path d="m71.07,33.64l8.44-13.89h7.59l-12.45,18.81,12.83,19.23h-7.52l-8.79-14.24-8.79,14.24h-7.56l12.83-19.23-12.45-18.81h7.52l8.33,13.89Z"/>
        <path d="m126.13,39.2c0,5.79-1.32,10.45-3.97,13.99-2.65,3.54-6.23,5.31-10.76,5.31s-8.25-1.46-10.9-4.39v18.32h-6.5V19.76h5.94l.32,4.22c2.65-3.28,6.33-4.92,11.04-4.92s8.19,1.72,10.85,5.17c2.66,3.45,3.99,8.24,3.99,14.38v.6Zm-6.5-.74c0-4.29-.91-7.68-2.74-10.16-1.83-2.48-4.34-3.73-7.52-3.73-3.94,0-6.89,1.75-8.86,5.24v18.18c1.95,3.47,4.92,5.2,8.93,5.2,3.12,0,5.6-1.24,7.44-3.71,1.84-2.47,2.76-6.15,2.76-11.02Z"/>
        <path d="m132.67,38.43c0-3.73.73-7.08,2.2-10.05,1.46-2.98,3.5-5.27,6.12-6.89,2.61-1.62,5.6-2.43,8.95-2.43,5.18,0,9.37,1.79,12.57,5.38s4.8,8.36,4.8,14.31v.46c0,3.7-.71,7.03-2.13,9.97-1.42,2.94-3.45,5.23-6.08,6.87-2.64,1.64-5.67,2.46-9.09,2.46-5.16,0-9.33-1.79-12.53-5.38s-4.8-8.33-4.8-14.24v-.46Zm6.54.77c0,4.22.98,7.61,2.94,10.16,1.96,2.55,4.58,3.83,7.86,3.83s5.93-1.29,7.88-3.88c1.95-2.59,2.92-6.22,2.92-10.88,0-4.17-.99-7.55-2.97-10.14-1.98-2.59-4.61-3.88-7.89-3.88s-5.8,1.28-7.77,3.83c-1.97,2.55-2.95,6.21-2.95,10.97Z"/>
        <path d="m197.6,47.71c0-1.76-.66-3.12-1.99-4.1-1.32-.97-3.63-1.81-6.93-2.51-3.29-.7-5.91-1.55-7.84-2.53s-3.36-2.16-4.29-3.52c-.93-1.36-1.39-2.98-1.39-4.85,0-3.12,1.32-5.75,3.96-7.91,2.64-2.16,6.01-3.23,10.11-3.23,4.31,0,7.81,1.11,10.49,3.34,2.68,2.23,4.03,5.07,4.03,8.54h-6.54c0-1.78-.76-3.32-2.27-4.61-1.51-1.29-3.42-1.93-5.71-1.93s-4.22.52-5.55,1.55c-1.34,1.03-2,2.38-2,4.04,0,1.57.62,2.75,1.86,3.55,1.24.8,3.49,1.56,6.73,2.29,3.25.73,5.88,1.59,7.89,2.6,2.02,1.01,3.51,2.22,4.48,3.64.97,1.42,1.46,3.15,1.46,5.19,0,3.4-1.36,6.12-4.08,8.17-2.72,2.05-6.25,3.08-10.58,3.08-3.05,0-5.74-.54-8.09-1.62-2.34-1.08-4.18-2.58-5.5-4.52-1.32-1.93-1.99-4.03-1.99-6.28h6.5c.12,2.18.99,3.91,2.62,5.19,1.63,1.28,3.78,1.92,6.45,1.92,2.46,0,4.44-.5,5.92-1.49,1.49-1,2.23-2.33,2.23-3.99Z"/>
        <path d="m228.36,58.5c-5.16,0-9.35-1.69-12.59-5.08-3.23-3.39-4.85-7.92-4.85-13.59v-1.2c0-3.77.72-7.14,2.16-10.11,1.44-2.96,3.46-5.29,6.05-6.96,2.59-1.68,5.4-2.51,8.42-2.51,4.95,0,8.79,1.63,11.53,4.89,2.74,3.26,4.11,7.92,4.11,13.99v2.71h-25.77c.09,3.75,1.19,6.78,3.29,9.09,2.1,2.31,4.76,3.46,8,3.46,2.3,0,4.24-.47,5.84-1.41,1.59-.94,2.99-2.18,4.18-3.73l3.97,3.09c-3.19,4.9-7.97,7.35-14.34,7.35Zm-.81-34.1c-2.62,0-4.83.96-6.61,2.87-1.78,1.91-2.88,4.59-3.3,8.03h19.05v-.49c-.19-3.3-1.08-5.87-2.67-7.68-1.59-1.82-3.75-2.72-6.47-2.72Z"/>
      </g>
      <rect x="0" y="28.95" width="54" height="9" rx="1.92" ry="1.92"/>
    </g>
  </g>
</svg>